<?xml version="1.0" encoding="UTF-8"?>
<svg xmlns="http://www.w3.org/2000/svg" version="1.1" width="300" height="300" viewBox="0 0 300 300"><rect x="0" y="0" width="300" height="300" fill="#fefefe"/><g transform="scale(8.108)"><g transform="translate(4,4)"><path fill-rule="evenodd" d="M8 0L8 1L11 1L11 3L10 3L10 2L9 2L9 3L10 3L10 5L9 5L9 6L8 6L8 8L9 8L9 9L10 9L10 10L9 10L9 11L8 11L8 10L6 10L6 11L7 11L7 12L6 12L6 13L7 13L7 14L6 14L6 15L7 15L7 16L6 16L6 17L7 17L7 18L4 18L4 17L5 17L5 16L4 16L4 15L3 15L3 16L2 16L2 13L1 13L1 15L0 15L0 16L2 16L2 17L0 17L0 21L2 21L2 20L3 20L3 21L4 21L4 20L3 20L3 19L2 19L2 18L4 18L4 19L7 19L7 20L6 20L6 21L8 21L8 22L9 22L9 24L8 24L8 26L9 26L9 27L8 27L8 29L10 29L10 28L9 28L9 27L10 27L10 25L13 25L13 26L11 26L11 28L12 28L12 27L14 27L14 26L15 26L15 27L17 27L17 26L20 26L20 27L21 27L21 28L20 28L20 29L21 29L21 28L23 28L23 29L25 29L25 28L27 28L27 27L28 27L28 28L29 28L29 25L28 25L28 24L29 24L29 23L27 23L27 25L28 25L28 26L26 26L26 27L25 27L25 26L23 26L23 27L22 27L22 25L26 25L26 24L25 24L25 23L26 23L26 21L28 21L28 20L27 20L27 19L26 19L26 18L28 18L28 19L29 19L29 18L28 18L28 17L26 17L26 16L27 16L27 14L28 14L28 16L29 16L29 11L28 11L28 13L24 13L24 12L26 12L26 11L27 11L27 10L28 10L28 9L29 9L29 8L28 8L28 9L26 9L26 11L25 11L25 9L23 9L23 8L22 8L22 9L21 9L21 10L20 10L20 9L18 9L18 8L19 8L19 5L20 5L20 7L21 7L21 2L20 2L20 1L19 1L19 0L17 0L17 1L16 1L16 3L17 3L17 4L16 4L16 5L18 5L18 8L17 8L17 6L16 6L16 8L15 8L15 6L14 6L14 5L13 5L13 4L14 4L14 3L15 3L15 2L14 2L14 1L15 1L15 0L13 0L13 1L12 1L12 0ZM17 1L17 3L18 3L18 5L19 5L19 3L20 3L20 2L18 2L18 1ZM12 2L12 4L13 4L13 2ZM10 5L10 6L9 6L9 7L10 7L10 9L11 9L11 10L10 10L10 11L9 11L9 12L7 12L7 13L9 13L9 12L11 12L11 14L9 14L9 16L8 16L8 18L7 18L7 19L8 19L8 18L9 18L9 17L10 17L10 20L11 20L11 19L12 19L12 21L11 21L11 22L12 22L12 23L13 23L13 22L12 22L12 21L13 21L13 19L15 19L15 18L14 18L14 17L12 17L12 18L11 18L11 16L12 16L12 15L13 15L13 16L16 16L16 18L17 18L17 19L16 19L16 22L18 22L18 24L17 24L17 23L15 23L15 22L14 22L14 25L15 25L15 24L16 24L16 25L19 25L19 22L20 22L20 20L19 20L19 19L18 19L18 18L17 18L17 17L19 17L19 15L18 15L18 14L17 14L17 13L19 13L19 14L20 14L20 16L21 16L21 18L20 18L20 19L22 19L22 20L23 20L23 19L24 19L24 20L25 20L25 18L26 18L26 17L25 17L25 16L26 16L26 14L25 14L25 15L24 15L24 17L23 17L23 16L21 16L21 15L23 15L23 14L22 14L22 13L19 13L19 11L20 11L20 10L18 10L18 9L17 9L17 8L16 8L16 10L17 10L17 11L15 11L15 10L14 10L14 11L12 11L12 10L13 10L13 9L15 9L15 8L13 8L13 9L12 9L12 6L13 6L13 7L14 7L14 6L13 6L13 5L12 5L12 6L11 6L11 5ZM10 6L10 7L11 7L11 6ZM0 8L0 9L2 9L2 8ZM3 8L3 9L4 9L4 12L3 12L3 11L2 11L2 10L1 10L1 11L0 11L0 12L1 12L1 11L2 11L2 12L3 12L3 13L5 13L5 8ZM6 8L6 9L7 9L7 8ZM22 9L22 10L21 10L21 12L22 12L22 11L23 11L23 12L24 12L24 10L23 10L23 9ZM14 11L14 13L12 13L12 14L13 14L13 15L14 15L14 13L15 13L15 15L16 15L16 13L17 13L17 12L18 12L18 11L17 11L17 12L16 12L16 13L15 13L15 11ZM7 14L7 15L8 15L8 14ZM24 17L24 18L25 18L25 17ZM12 18L12 19L13 19L13 18ZM14 20L14 21L15 21L15 20ZM17 20L17 21L18 21L18 20ZM21 21L21 24L24 24L24 21ZM22 22L22 23L23 23L23 22ZM9 24L9 25L10 25L10 24ZM20 25L20 26L21 26L21 25ZM18 27L18 28L19 28L19 27ZM24 27L24 28L25 28L25 27ZM14 28L14 29L17 29L17 28ZM0 0L0 7L7 7L7 0ZM1 1L1 6L6 6L6 1ZM2 2L2 5L5 5L5 2ZM22 0L22 7L29 7L29 0ZM23 1L23 6L28 6L28 1ZM24 2L24 5L27 5L27 2ZM0 22L0 29L7 29L7 22ZM1 23L1 28L6 28L6 23ZM2 24L2 27L5 27L5 24Z" fill="#000000"/></g></g></svg>
