<?xml version="1.0" encoding="UTF-8"?>
<svg xmlns="http://www.w3.org/2000/svg" version="1.1" width="300" height="300" viewBox="0 0 300 300"><rect x="0" y="0" width="300" height="300" fill="#fefefe"/><g transform="scale(8.108)"><g transform="translate(4,4)"><path fill-rule="evenodd" d="M8 0L8 1L10 1L10 0ZM16 0L16 1L18 1L18 2L19 2L19 5L18 5L18 3L17 3L17 2L11 2L11 4L10 4L10 3L9 3L9 2L8 2L8 5L9 5L9 6L8 6L8 7L9 7L9 8L8 8L8 9L7 9L7 8L6 8L6 9L5 9L5 10L4 10L4 11L3 11L3 10L2 10L2 9L4 9L4 8L0 8L0 11L1 11L1 12L4 12L4 16L3 16L3 13L2 13L2 14L1 14L1 13L0 13L0 14L1 14L1 15L0 15L0 16L1 16L1 18L0 18L0 19L1 19L1 18L2 18L2 19L3 19L3 18L5 18L5 15L7 15L7 14L8 14L8 16L9 16L9 17L10 17L10 18L11 18L11 19L12 19L12 20L11 20L11 21L9 21L9 20L8 20L8 22L9 22L9 25L8 25L8 29L16 29L16 27L15 27L15 26L17 26L17 27L19 27L19 28L18 28L18 29L22 29L22 28L21 28L21 27L19 27L19 26L18 26L18 24L17 24L17 21L19 21L19 18L18 18L18 19L17 19L17 18L16 18L16 16L17 16L17 15L20 15L20 16L18 16L18 17L20 17L20 19L21 19L21 20L20 20L20 22L19 22L19 24L20 24L20 26L22 26L22 25L24 25L24 26L23 26L23 28L24 28L24 26L26 26L26 27L25 27L25 29L26 29L26 27L27 27L27 29L28 29L28 27L29 27L29 23L28 23L28 22L29 22L29 21L27 21L27 18L28 18L28 15L29 15L29 13L27 13L27 12L25 12L25 9L27 9L27 8L24 8L24 9L22 9L22 8L21 8L21 10L23 10L23 12L25 12L25 13L26 13L26 15L27 15L27 17L26 17L26 16L25 16L25 14L24 14L24 13L22 13L22 14L20 14L20 13L19 13L19 12L22 12L22 11L19 11L19 10L20 10L20 9L19 9L19 8L20 8L20 7L21 7L21 6L20 6L20 2L19 2L19 1L21 1L21 0ZM12 3L12 5L10 5L10 6L9 6L9 7L10 7L10 8L9 8L9 9L8 9L8 10L7 10L7 9L6 9L6 10L5 10L5 11L4 11L4 12L5 12L5 14L7 14L7 13L8 13L8 12L10 12L10 13L9 13L9 14L10 14L10 13L11 13L11 11L15 11L15 12L18 12L18 10L16 10L16 9L17 9L17 8L16 8L16 6L17 6L17 7L18 7L18 8L19 8L19 7L20 7L20 6L19 6L19 7L18 7L18 6L17 6L17 5L15 5L15 7L14 7L14 6L13 6L13 7L12 7L12 5L13 5L13 3ZM14 3L14 4L15 4L15 3ZM10 6L10 7L11 7L11 8L12 8L12 7L11 7L11 6ZM14 8L14 10L15 10L15 8ZM28 8L28 10L26 10L26 11L28 11L28 12L29 12L29 11L28 11L28 10L29 10L29 8ZM9 9L9 10L8 10L8 11L7 11L7 10L6 10L6 11L7 11L7 12L6 12L6 13L7 13L7 12L8 12L8 11L9 11L9 10L10 10L10 9ZM1 10L1 11L2 11L2 10ZM12 12L12 14L11 14L11 15L9 15L9 16L12 16L12 17L11 17L11 18L12 18L12 17L13 17L13 16L14 16L14 18L13 18L13 20L12 20L12 21L11 21L11 22L10 22L10 23L11 23L11 24L10 24L10 25L9 25L9 27L10 27L10 25L11 25L11 28L12 28L12 26L13 26L13 28L14 28L14 26L13 26L13 23L11 23L11 22L12 22L12 21L13 21L13 22L14 22L14 20L15 20L15 23L14 23L14 25L15 25L15 23L16 23L16 21L17 21L17 20L16 20L16 19L14 19L14 18L15 18L15 16L14 16L14 15L16 15L16 14L15 14L15 13L13 13L13 12ZM17 13L17 14L19 14L19 13ZM12 14L12 16L13 16L13 14ZM22 14L22 15L21 15L21 16L22 16L22 17L21 17L21 19L22 19L22 20L26 20L26 18L25 18L25 17L24 17L24 16L22 16L22 15L23 15L23 14ZM2 16L2 18L3 18L3 16ZM6 16L6 17L7 17L7 16ZM23 17L23 18L22 18L22 19L24 19L24 17ZM6 18L6 19L4 19L4 20L3 20L3 21L7 21L7 20L6 20L6 19L7 19L7 18ZM8 18L8 19L9 19L9 18ZM1 20L1 21L2 21L2 20ZM21 21L21 24L24 24L24 21ZM22 22L22 23L23 23L23 22ZM26 22L26 24L25 24L25 25L26 25L26 26L27 26L27 27L28 27L28 24L27 24L27 22ZM11 24L11 25L12 25L12 24ZM16 24L16 25L17 25L17 24ZM26 24L26 25L27 25L27 24ZM0 0L0 7L7 7L7 0ZM1 1L1 6L6 6L6 1ZM2 2L2 5L5 5L5 2ZM22 0L22 7L29 7L29 0ZM23 1L23 6L28 6L28 1ZM24 2L24 5L27 5L27 2ZM0 22L0 29L7 29L7 22ZM1 23L1 28L6 28L6 23ZM2 24L2 27L5 27L5 24Z" fill="#000000"/></g></g></svg>
