<?xml version="1.0" encoding="UTF-8"?>
<svg xmlns="http://www.w3.org/2000/svg" version="1.1" width="300" height="300" viewBox="0 0 300 300"><rect x="0" y="0" width="300" height="300" fill="#fefefe"/><g transform="scale(8.108)"><g transform="translate(4,4)"><path fill-rule="evenodd" d="M9 0L9 1L11 1L11 2L9 2L9 3L8 3L8 5L9 5L9 6L8 6L8 7L9 7L9 9L8 9L8 8L5 8L5 9L3 9L3 10L2 10L2 8L0 8L0 11L2 11L2 12L0 12L0 13L1 13L1 14L0 14L0 21L1 21L1 19L2 19L2 20L3 20L3 19L4 19L4 20L5 20L5 21L7 21L7 20L6 20L6 19L9 19L9 18L10 18L10 19L11 19L11 21L10 21L10 22L9 22L9 20L8 20L8 24L9 24L9 25L10 25L10 26L9 26L9 27L8 27L8 29L11 29L11 28L13 28L13 29L14 29L14 28L13 28L13 27L16 27L16 28L17 28L17 29L18 29L18 28L17 28L17 27L18 27L18 26L19 26L19 29L20 29L20 26L19 26L19 25L21 25L21 28L23 28L23 29L27 29L27 27L28 27L28 28L29 28L29 27L28 27L28 26L29 26L29 25L28 25L28 26L27 26L27 25L26 25L26 24L25 24L25 23L27 23L27 24L28 24L28 23L27 23L27 22L26 22L26 21L29 21L29 20L26 20L26 21L25 21L25 19L26 19L26 18L28 18L28 19L29 19L29 17L27 17L27 14L29 14L29 12L28 12L28 13L27 13L27 14L25 14L25 13L24 13L24 11L22 11L22 10L21 10L21 9L20 9L20 8L21 8L21 6L20 6L20 7L19 7L19 6L18 6L18 5L21 5L21 3L19 3L19 2L18 2L18 1L19 1L19 0L18 0L18 1L17 1L17 2L18 2L18 3L17 3L17 4L16 4L16 8L15 8L15 5L14 5L14 4L15 4L15 0L13 0L13 1L12 1L12 0ZM13 1L13 2L12 2L12 4L11 4L11 7L10 7L10 6L9 6L9 7L10 7L10 8L11 8L11 10L10 10L10 9L9 9L9 10L10 10L10 11L9 11L9 12L8 12L8 10L7 10L7 9L6 9L6 10L5 10L5 11L3 11L3 12L2 12L2 13L3 13L3 14L2 14L2 15L1 15L1 16L2 16L2 18L3 18L3 17L4 17L4 18L8 18L8 17L11 17L11 19L12 19L12 20L14 20L14 19L15 19L15 20L16 20L16 19L17 19L17 20L18 20L18 21L16 21L16 22L20 22L20 21L19 21L19 20L20 20L20 19L22 19L22 20L23 20L23 19L25 19L25 18L26 18L26 17L25 17L25 16L26 16L26 15L25 15L25 14L24 14L24 13L23 13L23 14L24 14L24 15L25 15L25 16L24 16L24 17L25 17L25 18L22 18L22 17L23 17L23 15L22 15L22 12L21 12L21 15L20 15L20 14L18 14L18 15L17 15L17 14L16 14L16 15L15 15L15 14L14 14L14 13L15 13L15 12L16 12L16 13L18 13L18 12L20 12L20 10L18 10L18 11L17 11L17 9L16 9L16 11L15 11L15 12L14 12L14 10L15 10L15 9L12 9L12 6L13 6L13 8L14 8L14 5L12 5L12 4L13 4L13 3L14 3L14 1ZM20 1L20 2L21 2L21 1ZM9 3L9 5L10 5L10 3ZM18 3L18 4L17 4L17 5L18 5L18 4L19 4L19 3ZM17 6L17 8L18 8L18 9L19 9L19 8L18 8L18 6ZM24 8L24 9L23 9L23 10L25 10L25 9L26 9L26 10L28 10L28 9L26 9L26 8ZM6 10L6 11L7 11L7 10ZM11 10L11 11L10 11L10 12L9 12L9 13L8 13L8 14L9 14L9 13L10 13L10 14L11 14L11 12L12 12L12 11L13 11L13 10ZM16 11L16 12L17 12L17 11ZM25 11L25 12L26 12L26 11ZM3 12L3 13L4 13L4 14L3 14L3 15L5 15L5 16L4 16L4 17L5 17L5 16L6 16L6 17L7 17L7 16L8 16L8 15L7 15L7 14L6 14L6 13L7 13L7 12L6 12L6 13L5 13L5 12ZM12 13L12 14L13 14L13 15L12 15L12 17L15 17L15 19L16 19L16 18L17 18L17 19L20 19L20 18L21 18L21 17L20 17L20 16L19 16L19 17L18 17L18 16L17 16L17 17L15 17L15 16L13 16L13 15L14 15L14 14L13 14L13 13ZM5 14L5 15L6 15L6 16L7 16L7 15L6 15L6 14ZM10 15L10 16L11 16L11 15ZM21 15L21 16L22 16L22 15ZM28 15L28 16L29 16L29 15ZM17 17L17 18L18 18L18 17ZM12 18L12 19L14 19L14 18ZM11 21L11 22L10 22L10 23L9 23L9 24L10 24L10 23L12 23L12 25L14 25L14 26L15 26L15 25L14 25L14 24L15 24L15 21L13 21L13 22L14 22L14 23L12 23L12 21ZM21 21L21 24L24 24L24 21ZM22 22L22 23L23 23L23 22ZM16 23L16 24L17 24L17 26L18 26L18 25L19 25L19 24L20 24L20 23L19 23L19 24L18 24L18 23ZM22 25L22 26L23 26L23 25ZM24 25L24 26L25 26L25 25ZM11 26L11 27L9 27L9 28L11 28L11 27L12 27L12 26ZM24 27L24 28L25 28L25 27ZM0 0L0 7L7 7L7 0ZM1 1L1 6L6 6L6 1ZM2 2L2 5L5 5L5 2ZM22 0L22 7L29 7L29 0ZM23 1L23 6L28 6L28 1ZM24 2L24 5L27 5L27 2ZM0 22L0 29L7 29L7 22ZM1 23L1 28L6 28L6 23ZM2 24L2 27L5 27L5 24Z" fill="#000000"/></g></g></svg>
