<?xml version="1.0" encoding="UTF-8"?>
<svg xmlns="http://www.w3.org/2000/svg" version="1.1" width="300" height="300" viewBox="0 0 300 300"><rect x="0" y="0" width="300" height="300" fill="#fefefe"/><g transform="scale(8.108)"><g transform="translate(4,4)"><path fill-rule="evenodd" d="M9 0L9 1L8 1L8 2L9 2L9 3L8 3L8 4L10 4L10 7L11 7L11 4L12 4L12 5L14 5L14 8L13 8L13 6L12 6L12 9L14 9L14 12L13 12L13 13L12 13L12 11L13 11L13 10L11 10L11 11L10 11L10 9L11 9L11 8L6 8L6 9L7 9L7 10L5 10L5 11L3 11L3 10L4 10L4 9L5 9L5 8L0 8L0 9L2 9L2 10L0 10L0 14L2 14L2 15L1 15L1 16L2 16L2 17L3 17L3 16L4 16L4 19L7 19L7 20L5 20L5 21L7 21L7 20L8 20L8 23L9 23L9 24L8 24L8 29L11 29L11 28L9 28L9 25L11 25L11 26L13 26L13 27L12 27L12 28L13 28L13 29L14 29L14 28L16 28L16 27L18 27L18 26L19 26L19 29L20 29L20 28L21 28L21 27L23 27L23 29L27 29L27 28L28 28L28 26L29 26L29 24L28 24L28 25L27 25L27 24L26 24L26 25L25 25L25 23L27 23L27 22L29 22L29 20L28 20L28 19L27 19L27 16L28 16L28 15L27 15L27 14L25 14L25 13L27 13L27 12L28 12L28 11L27 11L27 12L26 12L26 11L25 11L25 13L24 13L24 14L23 14L23 13L19 13L19 12L17 12L17 11L18 11L18 10L20 10L20 12L21 12L21 11L22 11L22 12L24 12L24 11L22 11L22 10L25 10L25 9L26 9L26 8L25 8L25 9L24 9L24 8L23 8L23 9L22 9L22 8L21 8L21 6L20 6L20 7L19 7L19 6L18 6L18 5L21 5L21 4L20 4L20 3L19 3L19 2L18 2L18 1L20 1L20 2L21 2L21 0L16 0L16 1L14 1L14 3L13 3L13 4L12 4L12 2L13 2L13 1L11 1L11 2L10 2L10 0ZM16 1L16 2L15 2L15 3L14 3L14 5L16 5L16 4L15 4L15 3L18 3L18 4L17 4L17 5L18 5L18 4L19 4L19 3L18 3L18 2L17 2L17 1ZM10 3L10 4L11 4L11 3ZM8 5L8 7L9 7L9 5ZM15 6L15 7L16 7L16 6ZM17 6L17 8L18 8L18 9L19 9L19 8L18 8L18 6ZM20 8L20 10L21 10L21 8ZM27 8L27 9L28 9L28 10L29 10L29 9L28 9L28 8ZM15 9L15 10L16 10L16 11L17 11L17 10L16 10L16 9ZM7 10L7 11L6 11L6 12L8 12L8 13L9 13L9 16L8 16L8 17L5 17L5 18L8 18L8 20L9 20L9 23L11 23L11 24L12 24L12 25L13 25L13 24L14 24L14 26L16 26L16 25L17 25L17 26L18 26L18 25L19 25L19 26L20 26L20 27L21 27L21 26L23 26L23 25L20 25L20 23L19 23L19 24L18 24L18 23L15 23L15 22L16 22L16 21L15 21L15 22L14 22L14 21L13 21L13 22L14 22L14 23L13 23L13 24L12 24L12 21L11 21L11 18L13 18L13 19L12 19L12 20L14 20L14 18L16 18L16 17L17 17L17 20L18 20L18 21L17 21L17 22L20 22L20 21L19 21L19 20L20 20L20 18L19 18L19 19L18 19L18 17L19 17L19 16L20 16L20 17L23 17L23 16L22 16L22 14L21 14L21 16L20 16L20 14L18 14L18 15L17 15L17 14L16 14L16 13L15 13L15 14L14 14L14 13L13 13L13 14L12 14L12 13L11 13L11 12L10 12L10 13L9 13L9 12L8 12L8 11L9 11L9 10ZM1 11L1 12L2 12L2 14L3 14L3 15L2 15L2 16L3 16L3 15L4 15L4 16L7 16L7 15L8 15L8 14L7 14L7 13L6 13L6 14L7 14L7 15L5 15L5 13L4 13L4 12L3 12L3 11ZM3 13L3 14L4 14L4 13ZM10 13L10 18L9 18L9 20L10 20L10 18L11 18L11 13ZM28 13L28 14L29 14L29 13ZM13 14L13 15L12 15L12 17L15 17L15 16L17 16L17 17L18 17L18 16L17 16L17 15L16 15L16 14L15 14L15 15L14 15L14 14ZM24 14L24 15L25 15L25 16L24 16L24 17L25 17L25 18L24 18L24 19L25 19L25 21L26 21L26 20L27 20L27 19L26 19L26 17L25 17L25 16L27 16L27 15L25 15L25 14ZM13 15L13 16L14 16L14 15ZM0 17L0 21L1 21L1 17ZM28 17L28 18L29 18L29 17ZM2 18L2 21L3 21L3 18ZM21 18L21 20L23 20L23 19L22 19L22 18ZM21 21L21 24L24 24L24 21ZM22 22L22 23L23 23L23 22ZM15 24L15 25L16 25L16 24ZM17 24L17 25L18 25L18 24ZM24 25L24 26L25 26L25 25ZM13 27L13 28L14 28L14 27ZM24 27L24 28L25 28L25 27ZM26 27L26 28L27 28L27 27ZM17 28L17 29L18 29L18 28ZM0 0L0 7L7 7L7 0ZM1 1L1 6L6 6L6 1ZM2 2L2 5L5 5L5 2ZM22 0L22 7L29 7L29 0ZM23 1L23 6L28 6L28 1ZM24 2L24 5L27 5L27 2ZM0 22L0 29L7 29L7 22ZM1 23L1 28L6 28L6 23ZM2 24L2 27L5 27L5 24Z" fill="#000000"/></g></g></svg>
