<?xml version="1.0" encoding="UTF-8"?>
<svg xmlns="http://www.w3.org/2000/svg" version="1.1" width="300" height="300" viewBox="0 0 300 300"><rect x="0" y="0" width="300" height="300" fill="#fefefe"/><g transform="scale(8.108)"><g transform="translate(4,4)"><path fill-rule="evenodd" d="M10 0L10 1L8 1L8 3L9 3L9 4L8 4L8 8L6 8L6 9L8 9L8 10L6 10L6 11L4 11L4 10L5 10L5 9L4 9L4 8L3 8L3 10L2 10L2 8L0 8L0 9L1 9L1 12L0 12L0 13L1 13L1 14L0 14L0 15L1 15L1 16L2 16L2 17L1 17L1 18L0 18L0 19L1 19L1 18L2 18L2 17L4 17L4 16L5 16L5 18L3 18L3 20L2 20L2 21L4 21L4 20L5 20L5 19L7 19L7 20L6 20L6 21L7 21L7 20L8 20L8 19L9 19L9 21L8 21L8 23L10 23L10 26L9 26L9 25L8 25L8 26L9 26L9 27L8 27L8 29L11 29L11 28L9 28L9 27L10 27L10 26L11 26L11 27L13 27L13 28L14 28L14 29L16 29L16 27L15 27L15 26L14 26L14 25L15 25L15 20L16 20L16 19L14 19L14 20L13 20L13 18L15 18L15 17L16 17L16 18L17 18L17 17L18 17L18 16L20 16L20 17L21 17L21 19L20 19L20 20L19 20L19 18L18 18L18 19L17 19L17 20L19 20L19 21L16 21L16 23L19 23L19 24L20 24L20 25L22 25L22 26L23 26L23 25L24 25L24 28L23 28L23 29L25 29L25 27L27 27L27 29L28 29L28 27L29 27L29 26L28 26L28 24L27 24L27 23L28 23L28 22L29 22L29 21L27 21L27 20L29 20L29 17L28 17L28 15L29 15L29 14L25 14L25 16L26 16L26 15L27 15L27 17L28 17L28 18L27 18L27 20L26 20L26 22L27 22L27 23L25 23L25 20L23 20L23 19L24 19L24 16L23 16L23 15L22 15L22 13L23 13L23 14L24 14L24 13L23 13L23 12L25 12L25 13L26 13L26 12L27 12L27 13L29 13L29 12L28 12L28 10L29 10L29 9L28 9L28 8L26 8L26 9L25 9L25 8L22 8L22 9L21 9L21 10L23 10L23 9L25 9L25 11L22 11L22 12L20 12L20 10L19 10L19 11L18 11L18 10L17 10L17 9L16 9L16 10L17 10L17 11L15 11L15 12L17 12L17 13L19 13L19 14L20 14L20 15L17 15L17 14L16 14L16 15L14 15L14 14L15 14L15 13L14 13L14 10L15 10L15 8L16 8L16 7L17 7L17 8L18 8L18 7L19 7L19 9L20 9L20 8L21 8L21 5L19 5L19 1L20 1L20 2L21 2L21 1L20 1L20 0L17 0L17 1L16 1L16 0L14 0L14 3L15 3L15 4L14 4L14 5L13 5L13 3L12 3L12 7L11 7L11 4L10 4L10 3L9 3L9 2L11 2L11 0ZM17 1L17 2L18 2L18 1ZM17 3L17 5L18 5L18 3ZM9 5L9 8L8 8L8 9L10 9L10 10L8 10L8 11L6 11L6 12L7 12L7 13L3 13L3 11L2 11L2 12L1 12L1 13L3 13L3 14L4 14L4 15L5 15L5 14L8 14L8 15L6 15L6 16L7 16L7 17L6 17L6 18L7 18L7 19L8 19L8 18L9 18L9 19L10 19L10 21L12 21L12 22L11 22L11 26L13 26L13 23L14 23L14 22L13 22L13 21L12 21L12 19L11 19L11 18L12 18L12 16L13 16L13 17L15 17L15 16L13 16L13 14L14 14L14 13L13 13L13 12L12 12L12 16L11 16L11 18L9 18L9 17L8 17L8 16L10 16L10 15L11 15L11 13L10 13L10 12L9 12L9 11L11 11L11 8L10 8L10 5ZM14 5L14 6L13 6L13 7L12 7L12 8L14 8L14 6L15 6L15 7L16 7L16 6L15 6L15 5ZM17 6L17 7L18 7L18 6ZM19 6L19 7L20 7L20 6ZM26 9L26 10L28 10L28 9ZM17 11L17 12L18 12L18 11ZM25 11L25 12L26 12L26 11ZM8 12L8 14L9 14L9 15L10 15L10 14L9 14L9 12ZM19 12L19 13L20 13L20 12ZM1 14L1 15L2 15L2 16L3 16L3 15L2 15L2 14ZM21 15L21 16L22 16L22 17L23 17L23 16L22 16L22 15ZM16 16L16 17L17 17L17 16ZM7 17L7 18L8 18L8 17ZM25 17L25 18L26 18L26 17ZM22 18L22 19L21 19L21 20L22 20L22 19L23 19L23 18ZM0 20L0 21L1 21L1 20ZM21 21L21 24L24 24L24 21ZM12 22L12 23L13 23L13 22ZM19 22L19 23L20 23L20 22ZM22 22L22 23L23 23L23 22ZM16 24L16 25L17 25L17 26L18 26L18 24ZM25 24L25 25L27 25L27 24ZM19 26L19 27L17 27L17 29L18 29L18 28L19 28L19 27L20 27L20 29L22 29L22 28L21 28L21 27L20 27L20 26ZM27 26L27 27L28 27L28 26ZM0 0L0 7L7 7L7 0ZM1 1L1 6L6 6L6 1ZM2 2L2 5L5 5L5 2ZM22 0L22 7L29 7L29 0ZM23 1L23 6L28 6L28 1ZM24 2L24 5L27 5L27 2ZM0 22L0 29L7 29L7 22ZM1 23L1 28L6 28L6 23ZM2 24L2 27L5 27L5 24Z" fill="#000000"/></g></g></svg>
